<?xml version="1.0" encoding="UTF-8"?>
<svg id="Layer_2" data-name="Layer 2" xmlns="http://www.w3.org/2000/svg" viewBox="0 0 854.51 235">
  <defs>
    <style>
      .cls-1 {
        fill: #fff;
      }
    </style>
  </defs>
  <g id="Layer_1-2" data-name="Layer 1">
    <g>
      <g>
        <g>
          <path class="cls-1" d="m297.44,115.93c-1.96,0-3.76-.48-5.39-1.43-1.64-.95-2.93-2.24-3.88-3.88-.95-1.63-1.43-3.43-1.43-5.4v-2.5h7.22v2.5c0,.95.34,1.77,1.02,2.45.68.69,1.5,1.03,2.45,1.03h42.8c.95,0,1.77-.34,2.45-1.03.68-.68,1.03-1.5,1.03-2.45v-14.36c0-.95-.34-1.75-1.03-2.41s-1.5-.98-2.45-.98h-42.8c-1.96,0-3.76-.49-5.39-1.47-1.64-.98-2.93-2.28-3.88-3.88-.95-1.6-1.43-3.39-1.43-5.35v-14.36c0-1.96.47-3.76,1.43-5.4.95-1.63,2.24-2.93,3.88-3.88,1.63-.95,3.43-1.43,5.39-1.43h42.8c1.96,0,3.76.48,5.4,1.43,1.63.95,2.93,2.24,3.88,3.88.95,1.64,1.43,3.43,1.43,5.4v2.5h-7.22v-2.5c0-.95-.34-1.77-1.03-2.45s-1.5-1.03-2.45-1.03h-42.8c-.95,0-1.77.34-2.45,1.03s-1.02,1.5-1.02,2.45v14.36c0,.95.34,1.75,1.02,2.41.68.66,1.5.98,2.45.98h42.8c1.96,0,3.76.49,5.4,1.47,1.63.98,2.93,2.27,3.88,3.88.95,1.6,1.43,3.39,1.43,5.35v14.36c0,1.96-.48,3.76-1.43,5.4-.95,1.64-2.24,2.93-3.88,3.88-1.64.95-3.43,1.43-5.4,1.43h-42.8Z"/>
          <path class="cls-1" d="m365.61,114.45c-1.64-.98-2.94-2.29-3.92-3.92-.98-1.63-1.47-3.43-1.47-5.39v-40.93h7.31v40.93c0,.95.34,1.77,1.03,2.45s1.5,1.02,2.45,1.02h31.03c.95,0,1.78-.34,2.5-1.02.71-.68,1.07-1.5,1.07-2.45v-40.93h7.31v40.93c0,1.96-.49,3.76-1.47,5.39-.98,1.64-2.29,2.94-3.92,3.92s-3.46,1.47-5.48,1.47h-31.03c-1.96,0-3.76-.49-5.4-1.47Z"/>
          <path class="cls-1" d="m420.94,136.44v-72.23h41.91c1.96,0,3.76.49,5.39,1.47,1.64.98,2.94,2.29,3.92,3.92.98,1.64,1.47,3.43,1.47,5.4v30.14c0,1.96-.49,3.76-1.47,5.39-.98,1.64-2.29,2.94-3.92,3.92s-3.43,1.47-5.39,1.47h-34.6v20.51h-7.31Zm10.88-27.82h31.03c.95,0,1.77-.34,2.45-1.02.68-.68,1.02-1.5,1.02-2.45v-30.14c0-.95-.34-1.77-1.02-2.45-.69-.68-1.5-1.03-2.45-1.03h-31.03c-.95,0-1.78.34-2.5,1.03s-1.07,1.5-1.07,2.45v30.14c0,.95.36,1.77,1.07,2.45s1.55,1.02,2.5,1.02Z"/>
          <path class="cls-1" d="m485.28,114.45c-1.64-.98-2.94-2.29-3.92-3.92-.98-1.63-1.47-3.43-1.47-5.39v-30.14c0-1.96.49-3.76,1.47-5.4.98-1.63,2.29-2.94,3.92-3.92,1.63-.98,3.43-1.47,5.39-1.47h31.03c2.02,0,3.85.49,5.49,1.47,1.63.98,2.94,2.29,3.92,3.92.98,1.64,1.47,3.43,1.47,5.4v18.73h-45.39v11.42c0,.95.34,1.77,1.02,2.45s1.5,1.02,2.45,1.02h41.91v7.31h-41.91c-1.96,0-3.76-.49-5.39-1.47Zm1.92-28.05h37.99v-11.41c0-.95-.34-1.77-1.03-2.45s-1.5-1.03-2.45-1.03h-31.03c-.95,0-1.77.34-2.45,1.03s-1.02,1.5-1.02,2.45v11.41Z"/>
          <path class="cls-1" d="m541.24,115.93v-40.93c0-1.96.49-3.76,1.47-5.4.98-1.63,2.29-2.94,3.92-3.92,1.64-.98,3.43-1.47,5.4-1.47h29.07v7.31h-29.07c-.95,0-1.77.34-2.45,1.03s-1.03,1.5-1.03,2.45v40.93h-7.31Z"/>
          <path class="cls-1" d="m599.38,115.93c-2.26,0-4.33-.56-6.2-1.69-1.87-1.13-3.38-2.63-4.5-4.5-1.13-1.87-1.69-3.94-1.69-6.2v-4.9h11.77v4.37c0,.3.1.55.31.76s.46.31.76.31h38.44c.3,0,.55-.1.76-.31.21-.21.31-.46.31-.76v-12.22c0-.29-.1-.53-.31-.71-.21-.18-.46-.27-.76-.27h-38.88c-2.26,0-4.33-.56-6.2-1.69-1.87-1.13-3.38-2.63-4.5-4.5s-1.69-3.97-1.69-6.29v-13.2c0-2.26.57-4.33,1.69-6.2,1.13-1.87,2.63-3.37,4.5-4.5,1.87-1.13,3.94-1.69,6.2-1.69h39.42c2.26,0,4.32.57,6.2,1.69,1.87,1.13,3.37,2.63,4.5,4.5,1.13,1.87,1.69,3.94,1.69,6.2v4.9h-11.86v-4.37c0-.3-.1-.55-.31-.76-.21-.21-.46-.31-.76-.31h-38.44c-.3,0-.55.1-.76.31-.21.21-.31.46-.31.76v12.22c0,.3.1.53.31.71.21.18.46.27.76.27h38.97c2.26,0,4.32.57,6.2,1.69s3.37,2.63,4.5,4.5c1.13,1.87,1.69,3.97,1.69,6.29v13.2c0,2.26-.57,4.33-1.69,6.2-1.13,1.87-2.63,3.37-4.5,4.5-1.87,1.13-3.94,1.69-6.2,1.69h-39.42Z"/>
          <path class="cls-1" d="m666.62,114.23c-1.85-1.13-3.33-2.62-4.46-4.46-1.13-1.84-1.69-3.89-1.69-6.15v-27.11c0-2.26.56-4.31,1.69-6.15,1.13-1.84,2.61-3.33,4.46-4.46,1.84-1.13,3.89-1.69,6.15-1.69h27.91c2.26,0,4.33.57,6.2,1.69,1.87,1.13,3.36,2.62,4.46,4.46,1.1,1.85,1.65,3.9,1.65,6.15v27.11c0,2.26-.55,4.31-1.65,6.15-1.1,1.84-2.57,3.33-4.41,4.46-1.84,1.13-3.92,1.69-6.24,1.69h-27.91c-2.26,0-4.31-.56-6.15-1.69Zm6.6-9.99h27.02c.3,0,.55-.1.76-.31.21-.21.31-.46.31-.76v-26.22c0-.29-.1-.55-.31-.76-.21-.21-.46-.31-.76-.31h-27.02c-.3,0-.55.1-.76.31s-.31.46-.31.76v26.22c0,.3.1.55.31.76.21.21.46.31.76.31Z"/>
          <path class="cls-1" d="m720.21,115.93v-51.72h40.22c2.26,0,4.32.57,6.2,1.69,1.87,1.13,3.36,2.62,4.46,4.46,1.1,1.85,1.65,3.9,1.65,6.15v39.42h-11.68v-38.97c0-.29-.1-.55-.31-.76s-.46-.31-.76-.31h-27.02c-.3,0-.55.1-.76.31s-.31.46-.31.76v38.97h-11.68Z"/>
          <path class="cls-1" d="m782.1,59.03v-11.77h11.68v11.77h-11.68Zm0,56.89v-51.72h11.68v51.72h-11.68Z"/>
          <path class="cls-1" d="m808.14,114.23c-1.85-1.13-3.33-2.62-4.46-4.46-1.13-1.84-1.69-3.89-1.69-6.15v-27.11c0-2.26.56-4.31,1.69-6.15,1.13-1.84,2.61-3.33,4.46-4.46,1.84-1.13,3.89-1.69,6.15-1.69h40.13v11.68h-39.68c-.3,0-.55.1-.76.31s-.31.46-.31.76v26.22c0,.3.1.55.31.76.21.21.46.31.76.31h39.77v11.68h-40.22c-2.26,0-4.31-.56-6.15-1.69Z"/>
        </g>
        <g>
          <path class="cls-1" d="m289.12,158.66c-.72.43-1.31,1.01-1.74,1.74-.43.72-.65,1.54-.65,2.43v15.65c0,.89.22,1.7.65,2.43.43.72,1.01,1.31,1.74,1.74.72.43,1.54.65,2.43.65h20.4v-4.46h-19.89c-.26,0-.46-.08-.62-.24-.17-.17-.24-.36-.24-.63v-14.63c0-.26.08-.47.24-.63.16-.16.36-.24.62-.24h19.89v-4.46h-20.4c-.88,0-1.7.22-2.43.65Z"/>
          <path class="cls-1" d="m352.42,178.36c0,.12-.04.23-.13.33-.09.09-.19.13-.33.13h-15.41c-.12,0-.22-.04-.32-.14-.1-.1-.14-.19-.14-.32v-20.36h-4.46v20.46c0,.88.22,1.7.65,2.43.43.73,1.02,1.31,1.74,1.74.73.43,1.54.65,2.43.65h15.65c.86,0,1.67-.22,2.41-.65.73-.43,1.33-1.01,1.76-1.74.43-.73.65-1.55.65-2.43v-20.46h-4.49v20.36Z"/>
          <path class="cls-1" d="m399.62,158.65c-.74-.43-1.55-.65-2.41-.65h-15.65c-.86,0-1.67.22-2.41.65-.73.42-1.32,1.01-1.76,1.74-.43.72-.65,1.54-.65,2.43v5.24c0,.88.22,1.7.65,2.43.43.72,1.02,1.31,1.75,1.75.73.44,1.55.67,2.41.67h15.54c.13,0,.22.04.31.12.08.08.12.17.12.31v5.04c0,.12-.04.23-.13.33-.09.09-.17.13-.29.13h-15.44c-.12,0-.22-.04-.32-.14-.1-.09-.14-.19-.14-.32v-1.72h-4.46v1.82c0,.89.22,1.7.65,2.43.43.73,1.02,1.31,1.75,1.74.74.43,1.55.65,2.41.65h15.65c.86,0,1.67-.22,2.41-.65.73-.42,1.32-1.01,1.76-1.74.43-.73.65-1.55.65-2.43v-5.24c0-.88-.22-1.7-.65-2.43-.43-.73-1.02-1.32-1.75-1.75-.74-.44-1.55-.67-2.41-.67h-15.55c-.13,0-.23-.04-.34-.12-.09-.07-.12-.17-.12-.3v-5.04c0-.12.04-.22.14-.32.09-.1.19-.14.31-.14h15.44c.12,0,.21.04.29.13.09.1.14.21.14.33v1.72h4.49Z"/>
          <polygon class="cls-1" points="420.69 162.46 431.1 162.46 431.1 183.28 435.59 183.28 435.59 162.46 445.97 162.46 445.97 158 420.69 158 420.69 162.46"/>
          <path class="cls-1" d="m487.54,158.66c-.74-.43-1.55-.65-2.41-.65h-15.65c-.88,0-1.7.22-2.43.65-.72.43-1.3,1.01-1.74,1.74-.43.73-.65,1.55-.65,2.43v15.65c0,.88.22,1.7.65,2.43.43.73,1.02,1.31,1.74,1.74.73.43,1.54.65,2.43.65h15.65c.86,0,1.67-.22,2.41-.65.73-.43,1.33-1.01,1.76-1.74.43-.73.65-1.55.65-2.43v-15.65c0-.88-.22-1.7-.65-2.43-.43-.73-1.02-1.31-1.76-1.74Zm-2.09,4.26v15.44c0,.12-.04.23-.13.33-.09.09-.19.13-.33.13h-15.41c-.12,0-.22-.04-.32-.14-.1-.1-.14-.19-.14-.32v-15.44c0-.12.05-.22.14-.32.1-.09.19-.14.32-.14h15.41c.14,0,.24.04.33.13.09.1.14.21.14.33Z"/>
          <polygon class="cls-1" points="524.18 169.08 514.99 158.14 514.87 158 509.91 158 509.91 183.28 514.37 183.28 514.37 164.4 523.88 175.69 524.18 176.05 533.96 164.4 533.96 183.28 538.45 183.28 538.45 158 533.46 158 524.18 169.08"/>
          <path class="cls-1" d="m583.63,164.64v-1.82c0-.88-.22-1.7-.65-2.43-.43-.73-1.03-1.31-1.76-1.74-.74-.43-1.55-.65-2.41-.65h-15.65c-.86,0-1.67.22-2.41.65-.73.42-1.32,1.01-1.76,1.74-.43.72-.65,1.54-.65,2.43v5.24c0,.88.22,1.7.65,2.43.43.72,1.02,1.31,1.75,1.75.73.44,1.55.67,2.41.67h15.55c.12,0,.22.04.31.12.08.08.12.17.12.31v5.04c0,.12-.04.23-.13.33-.09.09-.18.13-.29.13h-15.44c-.12,0-.22-.04-.32-.14-.1-.09-.14-.19-.14-.32v-1.72h-4.45v1.82c0,.89.22,1.7.65,2.43.43.73,1.02,1.31,1.75,1.74.74.43,1.55.65,2.41.65h15.65c.86,0,1.67-.22,2.41-.65.73-.42,1.32-1.01,1.76-1.74.43-.73.65-1.55.65-2.43v-5.24c0-.88-.22-1.7-.65-2.43-.43-.73-1.02-1.32-1.75-1.75-.74-.44-1.55-.67-2.41-.67h-15.54c-.13,0-.24-.04-.34-.12-.09-.07-.12-.17-.12-.3v-5.04c0-.12.04-.22.14-.32.09-.1.19-.14.32-.14h15.44c.12,0,.21.04.29.13.09.1.14.21.14.33v1.72h4.49Z"/>
        </g>
      </g>
      <path class="cls-1" d="m234.55,107.17c-.37-4.33-.98-8.58-1.83-12.78-1.19-5.96-2.83-11.79-4.91-17.38-.45-1.25-.93-2.49-1.42-3.7-2.23-5.48-4.86-10.75-7.87-15.79l-17.38,12.39L45.27,181.04l-17.38,12.37c.71.87,1.46,1.71,2.21,2.55,4.06,4.52,8.47,8.72,13.19,12.57l18.09-12.89,23.64-16.86,64.96-46.31,59.73-42.57c1.62,5.39,2.78,10.98,3.44,16.73.39,3.56.61,7.19.61,10.86,0,.91,0,1.8-.04,2.71-1.12,40.5-27.4,74.84-63.73,87.89-10.17,3.65-21.1,5.64-32.49,5.64s-22.32-1.99-32.47-5.64v22.31c10.31,2.99,21.22,4.59,32.47,4.59s22.16-1.6,32.49-4.58c49.05-14.12,85.03-59.41,85.03-112.92,0-3.49-.16-6.93-.46-10.33Zm-200.69,57.9l51.17-36.46,104.72-74.65,17.38-12.37c-.73-.87-1.46-1.71-2.23-2.55-4.06-4.54-8.47-8.74-13.19-12.59l-18.07,12.89-23.64,16.86-64.96,46.31-59.75,42.58c-1.62-5.41-2.78-10.98-3.42-16.73-.39-3.56-.61-7.19-.61-10.86,0-.91,0-1.82.04-2.72,1.12-40.5,27.4-74.84,63.73-87.89,10.15-3.65,21.08-5.64,32.47-5.64s22.34,1.99,32.49,5.66V4.58c-10.31-2.97-21.22-4.58-32.49-4.58s-22.16,1.58-32.47,4.58C35.98,18.69,0,63.97,0,117.5c0,3.47.16,6.91.45,10.31.39,4.33,1,8.6,1.85,12.78,1.19,5.96,2.83,11.79,4.91,17.39.45,1.25.93,2.47,1.42,3.7,2.21,5.47,4.86,10.74,7.85,15.77,0,0,0,.02.02.02l17.38-12.39s-.02-.02-.02-.02Z"/>
    </g>
  </g>
</svg>
